<?xml version="1.0" encoding="UTF-8" standalone="no"?>
<!DOCTYPE svg PUBLIC "-//W3C//DTD SVG 1.1//EN" "http://www.w3.org/Graphics/SVG/1.1/DTD/svg11.dtd">
<svg xmlns="http://www.w3.org/2000/svg" version="1.1" viewBox="0 0 512 512" width="512.0pt" height="512.0pt">
<path d="M 0.00 0.00 L 247.54 0.00 C 212.87 1.39 178.58 9.44 147.18 24.29 C 118.92 37.53 93.14 55.99 71.52 78.50 C 44.97 106.03 24.80 139.59 12.84 175.91 C 5.10 199.49 0.71 224.31 0.00 249.11 L 0.00 0.00 Z" fill="none" />
<path d="M 247.54 0.00 L 265.59 0.00 L 267.31 0.10 C 300.77 1.84 333.78 9.72 364.14 23.97 C 392.67 37.23 418.69 55.82 440.49 78.50 C 467.01 106.01 487.17 139.53 499.13 175.82 C 506.91 199.51 511.33 224.45 512.00 249.38 L 512.00 263.81 C 510.81 297.88 502.94 331.83 488.65 362.80 C 476.62 389.04 460.10 413.28 440.00 434.00 C 414.98 459.94 384.39 480.39 350.93 493.76 C 323.18 504.85 293.40 511.01 263.55 512.00 L 247.28 512.00 C 212.96 510.59 178.98 502.63 147.86 488.03 C 122.13 476.06 98.37 459.75 78.00 439.99 C 49.23 412.25 27.24 377.67 14.14 339.93 C 5.64 315.40 0.85 289.48 0.00 263.54 L 0.00 249.11 C 0.71 224.31 5.10 199.49 12.84 175.91 C 24.80 139.59 44.97 106.03 71.52 78.50 C 93.14 55.99 118.92 37.53 147.18 24.29 C 178.58 9.44 212.87 1.39 247.54 0.00 Z" fill="#ffc107" />
<path d="M 265.59 0.00 L 512.00 0.00 L 512.00 249.38 C 511.33 224.45 506.91 199.51 499.13 175.82 C 487.17 139.53 467.01 106.01 440.49 78.50 C 418.69 55.82 392.67 37.23 364.14 23.97 C 333.78 9.72 300.77 1.84 267.31 0.10 L 265.59 0.00 Z" fill="none" />
<path d="M 285.02 97.61 C 314.63 103.05 342.57 116.87 364.73 137.27 C 392.58 162.56 410.70 197.70 415.70 234.96 C 398.49 235.02 381.28 235.04 364.07 234.95 C 359.15 208.49 344.29 184.42 322.99 168.00 C 310.36 158.24 295.59 151.29 280.02 147.75 C 257.70 142.65 233.86 144.70 212.76 153.60 C 195.35 160.83 180.08 172.65 168.43 187.45 C 157.61 201.28 150.15 217.71 146.93 234.98 C 169.21 234.96 191.49 235.11 213.76 234.91 C 221.11 219.97 236.35 209.86 253.01 209.08 C 270.17 208.02 287.27 217.20 295.73 232.19 C 304.84 247.64 303.91 267.88 293.41 282.42 C 282.58 298.06 262.12 305.42 243.76 300.50 C 230.93 297.18 220.42 288.57 214.12 276.98 C 191.78 277.04 169.44 276.97 147.10 277.01 C 151.32 298.23 161.93 318.42 177.41 333.59 C 192.79 349.27 213.30 359.96 234.84 364.06 C 270.27 370.96 308.31 359.39 333.59 333.59 C 349.08 318.41 359.66 298.23 363.91 277.00 C 381.18 277.04 398.45 276.92 415.71 277.06 C 412.64 298.92 405.40 320.11 393.95 339.01 C 374.18 372.11 342.21 397.48 305.48 409.20 C 276.34 418.73 244.38 419.57 214.78 411.64 C 189.44 404.95 165.98 392.05 146.74 374.26 C 119.20 348.99 101.24 314.04 96.31 277.01 C 86.05 276.84 75.74 277.32 65.50 276.74 C 53.82 262.73 41.85 248.95 30.09 235.01 C 52.16 234.98 74.24 235.02 96.31 234.99 C 101.24 197.96 119.20 163.01 146.74 137.74 C 164.47 121.37 185.87 109.01 208.98 102.03 C 233.45 94.43 259.84 93.00 285.02 97.61 Z" fill="#ffffff" />
<path d="M 0.00 263.54 C 0.85 289.48 5.64 315.40 14.14 339.93 C 27.24 377.67 49.23 412.25 78.00 439.99 C 98.37 459.75 122.13 476.06 147.86 488.03 C 178.98 502.63 212.96 510.59 247.28 512.00 L 0.00 512.00 L 0.00 263.54 Z" fill="none" />
<path d="M 512.00 263.81 L 512.00 512.00 L 263.55 512.00 C 293.40 511.01 323.18 504.85 350.93 493.76 C 384.39 480.39 414.98 459.94 440.00 434.00 C 460.10 413.28 476.62 389.04 488.65 362.80 C 502.94 331.83 510.81 297.88 512.00 263.81 Z" fill="none" />
</svg>