<?xml version="1.0" encoding="UTF-8" standalone="no"?>
<!DOCTYPE svg PUBLIC "-//W3C//DTD SVG 1.1//EN" "http://www.w3.org/Graphics/SVG/1.1/DTD/svg11.dtd">
<svg xmlns="http://www.w3.org/2000/svg" version="1.1" viewBox="0 0 900 900" width="900.0pt" height="900.0pt">
<path d="M 0.00 0.00 L 900.00 0.00 L 900.00 900.00 L 0.00 900.00 L 0.00 0.00 Z" fill="none" />
<path d="M 541.96 9.80 C 581.27 18.00 619.47 31.58 655.20 49.89 C 671.29 58.06 686.51 67.53 701.66 77.30 C 712.24 85.02 723.10 92.27 733.12 100.75 C 741.01 107.54 749.24 114.06 756.62 121.38 C 773.61 136.66 788.81 154.09 803.25 171.76 C 812.32 183.80 821.50 195.89 829.33 208.78 C 838.35 222.27 846.10 237.10 853.51 251.52 C 862.67 270.08 870.43 289.36 877.04 308.97 C 898.17 372.83 904.49 441.28 895.91 507.96 C 888.35 566.96 868.73 624.40 838.82 675.81 C 824.56 700.08 808.21 723.46 789.56 744.56 C 785.36 750.02 780.27 754.58 775.75 759.75 C 769.65 766.55 762.83 772.94 756.08 779.06 C 749.27 786.02 741.64 791.92 734.30 798.30 C 719.73 810.28 704.24 821.24 688.27 831.27 C 627.85 869.22 558.16 892.40 487.03 898.10 C 482.00 898.33 477.03 899.09 472.00 899.17 C 454.07 899.61 435.92 899.99 418.04 898.44 C 342.52 893.43 268.30 868.32 204.97 826.95 C 198.53 823.23 192.73 818.48 186.58 814.29 C 173.82 805.30 161.88 795.30 150.18 784.99 C 140.62 776.10 130.96 767.51 122.36 757.65 C 114.93 750.33 108.53 742.17 101.72 734.29 C 92.83 723.93 85.32 712.65 77.29 701.65 C 75.92 699.67 74.73 697.62 73.45 695.59 C 29.52 628.71 4.18 549.94 0.80 470.00 C -0.41 438.19 1.19 406.39 6.64 375.00 C 21.18 287.83 62.33 205.28 123.28 141.28 C 129.23 134.63 135.69 128.30 142.33 122.34 C 160.73 104.75 180.78 89.07 201.98 75.00 C 215.01 66.54 228.31 58.24 242.23 51.31 C 271.11 35.96 302.22 24.19 333.75 15.56 C 401.43 -2.49 473.40 -4.48 541.96 9.80 Z" fill="#ffc749" />
<path d="M 556.24 40.74 C 605.62 53.48 652.54 75.37 694.14 104.85 C 751.94 145.71 799.14 201.22 830.13 264.86 C 856.00 317.76 870.46 376.05 872.44 434.89 C 874.04 479.46 868.62 524.35 856.27 567.21 C 841.69 617.81 817.50 665.67 785.35 707.38 C 738.58 768.47 674.87 816.33 603.12 844.14 C 550.08 864.84 492.89 874.37 436.01 872.48 C 375.80 870.60 316.12 855.68 262.20 828.82 C 223.04 809.39 186.98 783.84 155.61 753.40 C 127.24 725.85 102.67 694.30 83.03 659.97 C 56.26 613.32 38.52 561.52 31.27 508.22 C 24.39 458.38 26.41 407.35 37.26 358.22 C 47.78 310.66 66.68 264.94 92.81 223.83 C 132.12 161.68 187.86 110.19 252.93 75.92 C 292.62 54.94 335.72 40.39 380.01 33.05 C 438.42 23.33 498.92 25.89 556.24 40.74 Z" fill="#724c30" />
<path d="M 542.83 109.24 C 590.72 122.20 635.69 145.51 673.98 177.03 C 707.07 204.21 735.19 237.37 756.47 274.53 C 784.50 323.23 800.57 378.85 802.73 435.00 C 805.60 498.50 790.88 562.61 760.42 618.41 C 738.92 658.00 709.77 693.37 675.06 722.08 C 637.36 753.35 593.12 776.65 545.96 789.90 C 475.86 809.67 399.81 807.19 331.23 782.61 C 284.79 766.09 242.05 739.62 206.40 705.60 C 180.49 680.91 158.34 652.31 141.00 620.99 C 113.54 571.63 98.29 515.47 97.08 459.00 C 95.30 396.98 110.33 334.64 140.29 280.29 C 163.66 237.69 195.92 200.04 234.39 170.36 C 266.98 145.18 303.95 125.75 343.22 113.34 C 407.55 92.92 477.71 91.51 542.83 109.24 Z" fill="#ffc749" />
<path d="M 478.20 114.29 C 475.95 140.28 473.95 166.32 471.61 192.30 C 457.27 191.12 442.71 191.06 428.38 192.29 C 426.09 166.30 423.97 140.28 421.79 114.29 C 440.45 112.72 459.54 112.71 478.20 114.29 Z" fill="#f62e33" />
<path d="M 478.20 114.29 C 496.51 115.76 514.63 118.78 532.46 123.20 C 526.15 148.54 519.61 173.85 513.38 199.20 C 499.70 195.79 485.68 193.38 471.61 192.30 C 473.95 166.32 475.95 140.28 478.20 114.29 Z" fill="#462f1b" />
<path d="M 421.79 114.29 C 423.97 140.28 426.09 166.30 428.38 192.29 C 414.95 193.36 401.58 195.56 388.49 198.71 C 384.15 181.52 380.05 164.26 375.76 147.05 C 373.76 138.95 372.00 130.76 369.69 122.74 C 386.78 118.55 404.24 115.70 421.79 114.29 Z" fill="#462f1b" />
<path d="M 369.69 122.74 C 372.00 130.76 373.76 138.95 375.76 147.05 C 380.05 164.26 384.15 181.52 388.49 198.71 C 374.40 202.24 360.60 206.77 347.29 212.59 C 337.05 188.59 326.61 164.67 316.27 140.72 C 333.51 133.19 351.39 127.16 369.69 122.74 Z" fill="#f62e33" />
<path d="M 532.46 123.20 C 550.78 127.81 568.66 133.98 585.93 141.63 C 575.26 165.44 564.93 189.43 554.29 213.25 C 541.07 207.40 527.39 202.77 513.38 199.20 C 519.61 173.85 526.15 148.54 532.46 123.20 Z" fill="#f62e33" />
<path d="M 316.27 140.72 C 326.61 164.67 337.05 188.59 347.29 212.59 C 334.42 218.12 322.01 224.79 310.21 232.34 C 296.05 210.44 281.96 188.44 267.82 166.52 C 283.24 156.62 299.42 147.93 316.27 140.72 Z" fill="#462f1b" />
<path d="M 585.93 141.63 C 602.69 149.02 618.84 157.82 634.19 167.80 C 619.85 189.61 605.63 211.51 591.34 233.35 C 579.57 225.66 567.14 218.94 554.29 213.25 C 564.93 189.43 575.26 165.44 585.93 141.63 Z" fill="#462f1b" />
<path d="M 267.82 166.52 C 281.96 188.44 296.05 210.44 310.21 232.34 C 298.06 240.26 286.49 249.03 275.79 258.84 C 258.18 239.60 240.59 220.28 223.05 200.97 C 237.03 188.30 251.90 176.66 267.82 166.52 Z" fill="#f62e33" />
<path d="M 634.19 167.80 C 649.91 178.10 664.80 189.73 678.59 202.51 C 661.08 221.86 643.15 240.85 625.51 260.08 C 614.94 250.20 603.45 241.28 591.34 233.35 C 605.63 211.51 619.85 189.61 634.19 167.80 Z" fill="#f62e33" />
<path d="M 471.61 192.30 C 485.68 193.38 499.70 195.79 513.38 199.20 C 527.39 202.77 541.07 207.40 554.29 213.25 C 567.14 218.94 579.57 225.66 591.34 233.35 C 603.45 241.28 614.94 250.20 625.51 260.08 C 635.96 269.46 645.39 280.05 654.07 291.07 C 662.98 302.53 670.90 314.67 677.80 327.44 C 684.51 339.81 690.14 352.79 694.71 366.09 C 699.43 379.82 702.92 393.81 705.27 408.13 C 707.53 422.04 708.63 436.21 708.60 450.29 C 708.61 464.72 707.40 479.17 704.96 493.38 C 702.70 507.25 699.19 520.97 694.57 534.24 C 689.93 547.92 683.97 561.19 677.09 573.89 C 670.33 586.26 662.60 598.04 653.89 609.13 C 644.91 620.47 635.17 631.34 624.38 641.00 C 614.05 650.51 602.89 659.06 591.17 666.80 C 578.93 674.58 566.25 681.61 552.91 687.34 C 540.02 692.91 526.67 697.49 513.04 700.91 C 499.00 704.39 484.61 706.73 470.18 707.83 C 456.20 708.94 442.10 708.86 428.11 707.70 C 413.68 706.46 399.30 704.10 385.27 700.46 C 371.65 696.96 358.31 692.29 345.44 686.63 C 332.20 680.74 319.54 673.80 307.44 665.83 C 295.71 658.08 284.66 649.37 274.31 639.85 C 263.70 629.99 253.87 619.21 245.03 607.74 C 236.44 596.58 228.71 584.78 222.08 572.34 C 215.30 559.57 209.36 546.21 204.81 532.48 C 200.31 519.14 196.91 505.45 194.71 491.55 C 192.43 477.31 191.30 462.86 191.42 448.44 C 191.41 434.28 192.72 420.21 195.05 406.25 C 197.49 391.97 201.15 377.95 205.90 364.26 C 210.64 351.03 216.26 338.21 223.03 325.88 C 229.99 313.21 238.05 301.10 246.99 289.75 C 255.75 278.73 265.29 268.23 275.79 258.84 C 286.49 249.03 298.06 240.26 310.21 232.34 C 322.01 224.79 334.42 218.12 347.29 212.59 C 360.60 206.77 374.40 202.24 388.49 198.71 C 401.58 195.56 414.95 193.36 428.38 192.29 C 442.71 191.06 457.27 191.12 471.61 192.30 Z" fill="#6ea90d" />
<path d="M 223.05 200.97 C 240.59 220.28 258.18 239.60 275.79 258.84 C 265.29 268.23 255.75 278.73 246.99 289.75 C 226.64 273.42 206.06 257.37 185.60 241.18 C 196.92 226.73 209.54 213.39 223.05 200.97 Z" fill="#462f1b" />
<path d="M 678.59 202.51 C 692.08 215.01 704.65 228.53 715.92 243.07 C 695.19 258.92 674.71 275.10 654.07 291.07 C 645.39 280.05 635.96 269.46 625.51 260.08 C 643.15 240.85 661.08 221.86 678.59 202.51 Z" fill="#462f1b" />
<path d="M 185.60 241.18 C 206.06 257.37 226.64 273.42 246.99 289.75 C 238.05 301.10 229.99 313.21 223.03 325.88 C 200.21 313.20 177.23 300.81 154.38 288.19 C 163.42 271.69 173.94 255.94 185.60 241.18 Z" fill="#f62e33" />
<path d="M 715.92 243.07 C 727.50 257.87 737.87 273.71 746.71 290.29 C 723.80 302.71 700.76 315.06 677.80 327.44 C 670.90 314.67 662.98 302.53 654.07 291.07 C 674.71 275.10 695.19 258.92 715.92 243.07 Z" fill="#f62e33" />
<path d="M 369.00 251.14 C 382.36 250.87 395.50 252.20 408.80 252.73 C 427.79 254.02 446.96 255.95 466.00 255.38 C 473.33 254.59 480.65 254.49 488.01 254.21 C 494.21 253.66 500.37 253.50 506.57 254.08 C 521.95 254.97 539.89 257.07 552.82 266.16 C 558.41 269.90 564.04 275.34 566.07 281.92 C 570.66 294.16 568.29 309.52 565.62 322.02 C 565.16 325.16 564.51 328.18 563.55 331.21 C 565.92 336.45 569.46 340.65 572.66 345.36 C 578.33 354.14 584.44 362.41 589.08 371.84 C 595.96 384.04 599.02 397.66 602.70 411.02 C 606.66 428.45 610.33 445.89 613.80 463.42 C 621.89 498.47 629.28 534.26 639.33 568.82 C 641.87 578.58 643.17 589.82 638.09 599.01 C 631.89 611.18 620.63 618.49 609.22 625.21 C 595.43 632.56 580.64 638.27 566.16 644.13 C 552.71 649.81 539.38 656.37 524.83 658.75 C 513.61 660.59 502.32 660.77 491.85 655.79 C 490.78 657.58 490.15 659.26 488.09 660.12 C 484.63 661.71 479.77 660.48 476.06 660.23 C 467.71 659.80 459.35 659.37 451.00 658.84 C 439.33 657.54 427.69 656.38 416.05 654.78 C 409.07 653.27 401.97 652.72 395.01 651.06 C 385.78 648.78 376.50 647.66 367.58 644.23 C 355.99 641.54 344.86 637.51 333.88 632.95 C 327.23 630.11 320.64 627.38 314.40 623.69 C 309.21 620.49 303.78 617.84 298.98 614.03 C 292.20 609.56 285.70 604.80 279.92 599.06 C 274.78 594.11 268.07 589.55 266.77 582.00 C 265.20 571.41 270.17 563.92 272.98 554.20 C 276.07 546.00 277.59 537.45 280.03 529.05 C 281.54 523.91 281.87 518.45 282.93 513.17 C 284.56 504.76 285.14 496.33 286.10 487.84 C 286.99 482.54 286.17 477.26 286.93 471.96 C 287.87 466.31 287.18 460.66 287.78 454.96 C 288.35 449.64 288.53 444.33 288.68 438.98 C 289.49 426.97 291.10 414.99 292.54 403.04 C 294.63 387.31 298.57 371.95 303.78 356.97 C 304.77 354.19 306.27 351.35 306.68 348.42 C 304.83 346.88 302.57 345.80 300.58 344.41 C 287.86 335.10 277.81 322.53 272.73 307.51 C 271.47 302.93 269.80 297.36 270.61 292.61 C 274.28 283.82 281.78 276.06 289.01 270.02 C 301.20 261.32 315.29 256.26 330.02 253.92 C 342.95 251.38 355.87 250.96 369.00 251.14 Z" fill="#000000" />
<path d="M 384.01 264.20 C 390.67 264.49 397.34 264.54 404.00 264.81 C 417.19 266.15 429.87 265.64 443.00 265.69 C 454.01 265.52 464.97 264.51 476.00 264.21 C 479.03 264.23 482.04 264.30 485.06 263.99 C 494.76 263.08 504.07 264.25 513.74 264.35 C 521.69 264.91 529.94 266.20 537.30 269.41 C 544.59 272.01 551.09 277.42 554.59 284.37 C 558.40 292.06 559.09 300.48 557.86 308.89 C 557.36 317.86 555.66 326.28 556.56 335.29 C 555.80 336.03 555.08 336.80 554.36 337.56 C 551.39 339.30 548.34 340.87 545.35 342.58 C 545.34 332.41 547.23 322.97 545.69 312.97 C 545.31 304.15 543.42 295.64 541.67 287.02 C 541.25 284.61 539.89 282.91 538.29 281.16 C 534.86 281.77 531.54 282.55 528.04 282.73 C 518.05 283.90 508.03 281.64 497.91 282.90 C 491.98 283.60 485.93 286.39 481.58 290.48 C 469.98 289.86 457.82 295.75 446.00 294.82 C 440.98 294.34 435.80 294.92 430.86 293.97 C 423.92 292.24 417.08 292.85 410.07 291.86 C 394.48 290.50 378.66 288.52 363.00 288.78 C 353.68 288.91 344.49 290.43 335.52 292.95 C 330.95 291.85 326.62 292.54 322.01 292.63 C 316.88 292.75 311.77 293.16 306.65 293.45 C 306.36 291.83 307.24 290.44 305.33 289.75 C 299.38 287.65 291.80 288.60 285.70 289.67 C 280.81 290.45 276.58 292.87 271.74 293.78 C 275.27 291.72 278.24 288.98 281.56 286.64 C 297.40 276.42 315.45 268.78 334.20 266.20 C 350.71 263.85 367.35 262.97 384.01 264.20 Z" fill="#e4b57c" />
<path d="M 154.38 288.19 C 177.23 300.81 200.21 313.20 223.03 325.88 C 216.26 338.21 210.64 351.03 205.90 364.26 C 182.17 356.03 158.43 347.66 134.73 339.33 C 133.80 339.01 132.88 338.70 131.95 338.38 C 138.08 321.09 145.57 304.28 154.38 288.19 Z" fill="#462f1b" />
<path d="M 363.00 288.78 C 378.66 288.52 394.48 290.50 410.07 291.86 C 417.08 292.85 423.92 292.24 430.86 293.97 C 429.96 296.29 426.17 295.75 424.08 296.15 C 406.74 296.92 389.33 296.95 371.98 296.33 C 359.90 295.29 347.51 294.74 335.52 292.95 C 344.49 290.43 353.68 288.91 363.00 288.78 Z" fill="#000000" />
<path d="M 481.58 290.48 C 476.54 295.45 476.56 301.70 478.89 308.02 C 481.88 318.42 492.62 325.15 502.96 326.17 C 507.22 326.38 511.58 326.08 513.54 321.68 C 514.46 316.66 512.81 312.25 510.25 308.02 C 503.09 310.67 497.48 314.46 489.63 314.72 C 488.98 313.18 487.75 312.18 488.43 310.43 C 491.33 302.62 497.12 295.60 502.50 289.32 C 505.16 289.63 508.07 289.68 510.62 290.55 C 513.25 292.34 514.34 296.47 515.81 299.20 C 519.17 306.05 520.05 313.43 519.56 320.99 C 519.30 330.39 514.99 338.82 508.00 345.00 C 501.56 351.25 491.67 353.04 483.01 352.59 C 476.88 352.55 471.10 350.63 464.97 350.25 C 445.45 347.19 425.71 345.15 405.99 344.11 C 394.28 343.04 382.65 342.28 370.98 342.48 C 362.98 342.09 354.97 342.12 346.96 342.22 C 338.17 342.75 328.80 342.55 320.25 340.22 C 313.27 338.11 307.31 333.93 302.56 328.44 C 295.45 320.41 289.74 311.14 282.68 303.07 C 282.49 301.37 282.45 299.66 282.45 297.95 C 289.69 294.42 298.75 294.28 306.65 293.45 C 311.77 293.16 316.88 292.75 322.01 292.63 C 326.62 292.54 330.95 291.85 335.52 292.95 C 347.51 294.74 359.90 295.29 371.98 296.33 C 389.33 296.95 406.74 296.92 424.08 296.15 C 426.17 295.75 429.96 296.29 430.86 293.97 C 435.80 294.92 440.98 294.34 446.00 294.82 C 457.82 295.75 469.98 289.86 481.58 290.48 Z" fill="#d89b62" />
<path d="M 746.71 290.29 C 755.47 306.43 762.85 323.31 768.79 340.69 C 744.08 349.08 719.35 357.46 694.71 366.09 C 690.14 352.79 684.51 339.81 677.80 327.44 C 700.76 315.06 723.80 302.71 746.71 290.29 Z" fill="#462f1b" />
<path d="M 517.33 291.19 C 522.24 291.95 527.33 291.96 532.19 292.83 C 536.57 294.39 536.40 299.22 536.74 303.06 C 538.30 315.38 537.76 328.31 537.32 340.72 C 537.41 337.10 533.64 336.17 530.75 336.71 C 527.67 337.43 524.65 338.37 521.55 339.02 C 522.60 335.99 523.82 333.02 524.99 330.03 C 528.23 321.34 528.96 310.99 525.44 302.27 C 523.80 298.06 520.32 294.50 517.33 291.19 Z" fill="#d89b62" />
<path d="M 281.48 298.79 L 282.45 297.95 C 282.45 299.66 282.49 301.37 282.68 303.07 C 281.84 301.63 281.53 300.47 281.48 298.79 Z" fill="#604631" />
<path d="M 556.56 335.29 C 557.83 335.41 559.10 335.54 560.37 335.69 C 563.24 344.83 567.46 353.41 570.89 362.22 C 580.11 382.69 587.86 404.67 590.73 427.01 C 592.14 434.38 593.58 441.76 594.85 449.16 C 598.08 463.47 601.26 477.79 604.55 492.09 C 605.70 498.60 608.05 504.74 609.27 511.23 C 611.47 519.14 613.63 527.05 615.65 535.01 C 619.69 548.13 624.47 561.06 629.08 573.99 C 631.63 579.53 632.22 585.92 629.48 591.51 C 626.45 597.39 621.20 602.04 615.79 605.70 C 607.92 610.54 599.57 614.69 590.96 618.07 C 585.16 620.98 579.17 623.41 573.32 626.19 C 568.73 627.78 564.18 629.49 559.56 630.97 C 553.74 632.55 547.92 634.07 542.14 635.76 C 526.91 638.86 511.59 641.71 496.39 644.81 C 498.16 641.87 501.18 639.96 503.18 637.14 C 506.28 632.91 510.21 628.93 512.53 624.28 C 516.33 619.98 521.28 616.52 525.62 612.63 C 532.29 606.61 539.40 601.13 546.00 595.03 C 549.30 592.28 552.27 588.97 556.99 589.78 C 563.67 590.72 570.24 592.97 576.98 593.56 C 588.02 595.00 599.11 595.42 610.16 596.68 C 610.83 596.06 611.50 595.44 612.17 594.83 C 615.63 592.00 620.95 591.74 625.07 590.02 C 625.35 583.39 624.90 576.83 623.02 570.45 C 617.79 574.15 616.98 581.63 613.21 587.04 C 596.68 579.55 580.26 571.79 563.75 564.26 C 561.55 563.20 558.83 562.42 557.00 560.80 C 556.58 559.22 556.49 557.51 556.41 555.88 C 559.66 527.86 558.28 500.11 558.70 471.99 C 558.63 465.95 559.56 460.01 559.64 453.98 C 560.23 442.29 561.94 430.67 562.66 419.00 C 563.73 413.02 563.40 407.05 563.69 401.00 C 563.88 387.47 563.09 374.04 559.97 360.83 C 559.62 359.35 558.70 358.32 557.78 357.17 C 556.68 357.27 555.59 357.39 554.50 357.54 C 553.78 350.64 552.25 344.44 554.36 337.56 C 555.08 336.80 555.80 336.03 556.56 335.29 Z" fill="#d89b62" />
<path d="M 537.32 340.72 C 535.24 352.65 533.92 365.27 530.16 376.83 C 529.40 379.53 528.86 382.31 528.19 385.04 C 521.70 407.25 513.72 428.51 506.41 450.39 C 503.81 460.15 500.29 469.51 498.32 479.47 C 496.88 484.92 494.90 490.09 494.34 495.76 C 492.76 502.43 491.58 509.17 490.58 515.95 C 489.92 524.07 488.07 532.02 487.13 540.12 C 485.78 546.03 485.44 552.02 484.36 557.96 C 480.66 584.80 476.93 610.73 481.55 637.79 C 482.63 638.61 483.70 639.31 484.98 639.77 C 485.42 642.07 485.84 644.38 486.26 646.68 C 479.84 646.21 473.43 646.28 467.00 646.34 C 450.66 645.49 434.36 645.08 418.11 642.91 C 405.90 641.64 393.67 639.73 381.77 636.74 C 376.22 636.11 371.09 634.62 365.80 632.95 C 354.94 630.45 344.92 626.09 334.49 622.29 C 316.05 614.43 298.48 603.86 283.43 590.58 C 281.49 588.80 279.33 586.95 278.63 584.30 C 276.64 579.01 278.45 572.44 279.36 566.98 C 282.40 554.81 286.49 542.85 290.81 531.08 C 292.47 527.80 293.10 524.42 293.60 520.82 C 296.78 504.57 297.06 487.52 298.93 470.97 C 299.13 462.07 300.15 453.32 299.49 444.43 L 299.54 443.85 C 300.16 439.23 299.94 434.63 300.01 429.99 C 300.81 419.66 300.82 409.64 303.10 399.45 C 305.97 388.70 310.53 378.38 313.12 367.56 C 314.65 362.77 316.31 358.03 317.84 353.24 C 326.08 356.36 335.23 357.32 343.97 357.73 C 351.40 357.61 358.59 358.98 366.03 358.24 C 372.72 357.40 379.32 358.06 386.02 357.72 C 393.95 357.23 402.21 358.02 409.99 358.50 C 438.06 360.25 465.98 361.96 493.99 364.58 C 498.55 364.57 503.12 365.87 507.63 365.62 C 511.14 364.81 511.84 359.97 513.18 357.16 C 516.00 351.14 518.92 345.15 521.55 339.02 C 524.65 338.37 527.67 337.43 530.75 336.71 C 533.64 336.17 537.41 337.10 537.32 340.72 Z" fill="#e4b57c" />
<path d="M 554.36 337.56 C 552.25 344.44 553.78 350.64 554.50 357.54 C 554.12 367.35 554.50 377.19 554.30 387.00 C 553.33 396.32 553.97 405.68 552.84 415.02 C 551.92 423.06 551.71 431.16 550.77 439.18 C 549.63 456.88 546.47 475.26 547.39 493.01 C 547.48 516.65 550.79 540.44 552.71 563.99 C 552.86 566.78 553.14 569.53 554.00 572.21 C 555.66 567.04 555.76 561.30 556.41 555.88 C 556.49 557.51 556.58 559.22 557.00 560.80 C 558.83 562.42 561.55 563.20 563.75 564.26 C 580.26 571.79 596.68 579.55 613.21 587.04 C 616.98 581.63 617.79 574.15 623.02 570.45 C 624.90 576.83 625.35 583.39 625.07 590.02 C 620.95 591.74 615.63 592.00 612.17 594.83 C 611.45 594.03 610.78 592.73 609.70 592.41 C 600.54 588.99 590.70 587.18 581.02 585.96 C 573.08 584.43 565.06 582.50 557.02 581.59 C 552.90 581.11 549.73 583.37 546.40 585.41 C 535.77 592.57 526.55 601.66 519.04 612.03 C 516.60 615.98 513.47 619.79 512.53 624.28 C 510.21 628.93 506.28 632.91 503.18 637.14 C 501.18 639.96 498.16 641.87 496.39 644.81 C 493.07 645.85 489.78 646.72 486.26 646.68 C 485.84 644.38 485.42 642.07 484.98 639.77 C 486.44 639.26 487.87 638.70 489.31 638.15 C 489.41 633.73 489.60 629.42 489.15 625.01 C 488.10 613.49 489.39 602.42 489.53 590.98 C 490.46 573.23 493.03 555.66 494.97 537.99 C 496.72 527.38 499.07 516.86 500.90 506.27 C 501.91 500.81 503.64 495.47 504.50 490.00 C 505.39 483.05 508.17 476.67 509.47 469.78 C 512.33 460.12 515.15 450.42 518.50 440.92 C 520.99 432.35 525.05 424.33 527.45 415.75 C 531.70 403.51 535.98 391.41 538.75 378.73 C 539.45 375.09 541.10 371.70 541.50 368.04 C 541.97 362.94 543.83 358.18 544.20 353.05 C 544.43 349.50 544.77 346.08 545.35 342.58 C 548.34 340.87 551.39 339.30 554.36 337.56 Z" fill="#cb8249" />
<path d="M 131.95 338.38 C 132.88 338.70 133.80 339.01 134.73 339.33 C 158.43 347.66 182.17 356.03 205.90 364.26 C 201.15 377.95 197.49 391.97 195.05 406.25 C 169.31 402.04 143.63 397.43 117.90 393.15 C 121.02 374.55 125.69 356.17 131.95 338.38 Z" fill="#f62e33" />
<path d="M 768.79 340.69 C 774.90 358.40 779.49 376.86 782.50 395.35 C 756.78 399.77 731.00 403.81 705.27 408.13 C 702.92 393.81 699.43 379.82 694.71 366.09 C 719.35 357.46 744.08 349.08 768.79 340.69 Z" fill="#f62e33" />
<path d="M 554.50 357.54 C 555.59 357.39 556.68 357.27 557.78 357.17 C 558.70 358.32 559.62 359.35 559.97 360.83 C 563.09 374.04 563.88 387.47 563.69 401.00 C 563.40 407.05 563.73 413.02 562.66 419.00 C 561.94 430.67 560.23 442.29 559.64 453.98 C 559.56 460.01 558.63 465.95 558.70 471.99 C 558.28 500.11 559.66 527.86 556.41 555.88 C 555.76 561.30 555.66 567.04 554.00 572.21 C 553.14 569.53 552.86 566.78 552.71 563.99 C 550.79 540.44 547.48 516.65 547.39 493.01 C 546.47 475.26 549.63 456.88 550.77 439.18 C 551.71 431.16 551.92 423.06 552.84 415.02 C 553.97 405.68 553.33 396.32 554.30 387.00 C 554.50 377.19 554.12 367.35 554.50 357.54 Z" fill="#000000" />
<path d="M 313.12 367.56 C 310.53 378.38 305.97 388.70 303.10 399.45 C 300.82 409.64 300.81 419.66 300.01 429.99 C 299.94 434.63 300.16 439.23 299.54 443.85 C 299.34 434.90 299.19 426.00 300.13 417.08 C 300.65 408.85 301.33 400.97 304.21 393.16 C 307.29 384.68 309.64 375.89 313.12 367.56 Z" fill="#8d704f" />
<path d="M 117.90 393.15 C 143.63 397.43 169.31 402.04 195.05 406.25 C 192.72 420.21 191.41 434.28 191.42 448.44 C 165.33 448.15 139.23 448.27 113.14 447.83 C 113.16 429.52 114.74 411.19 117.90 393.15 Z" fill="#462f1b" />
<path d="M 782.50 395.35 C 785.49 413.49 786.92 431.82 786.87 450.20 C 760.79 450.33 734.67 450.15 708.60 450.29 C 708.63 436.21 707.53 422.04 705.27 408.13 C 731.00 403.81 756.78 399.77 782.50 395.35 Z" fill="#462f1b" />
<path d="M 299.49 444.43 C 300.15 453.32 299.13 462.07 298.93 470.97 C 297.06 487.52 296.78 504.57 293.60 520.82 C 293.10 524.42 292.47 527.80 290.81 531.08 C 292.01 525.67 292.92 520.22 293.88 514.77 C 295.43 505.46 295.67 496.10 296.72 486.74 C 297.71 474.82 298.87 462.98 298.78 451.00 C 298.72 448.73 298.97 446.62 299.49 444.43 Z" fill="#715a40" />
<path d="M 113.14 447.83 C 139.23 448.27 165.33 448.15 191.42 448.44 C 191.30 462.86 192.43 477.31 194.71 491.55 C 168.94 495.70 143.18 499.99 117.40 504.07 C 114.37 485.42 112.95 466.73 113.14 447.83 Z" fill="#f62e33" />
<path d="M 708.60 450.29 C 734.67 450.15 760.79 450.33 786.87 450.20 C 786.94 469.06 785.34 487.83 782.21 506.43 C 756.44 502.24 730.72 497.67 704.96 493.38 C 707.40 479.17 708.61 464.72 708.60 450.29 Z" fill="#f62e33" />
<path d="M 194.71 491.55 C 196.91 505.45 200.31 519.14 204.81 532.48 C 180.07 540.80 155.29 549.15 130.59 557.58 C 124.72 540.15 120.34 522.22 117.40 504.07 C 143.18 499.99 168.94 495.70 194.71 491.55 Z" fill="#462f1b" />
<path d="M 704.96 493.38 C 730.72 497.67 756.44 502.24 782.21 506.43 C 779.12 524.48 774.64 542.33 768.68 559.66 C 743.93 551.32 719.31 542.59 694.57 534.24 C 699.19 520.97 702.70 507.25 704.96 493.38 Z" fill="#462f1b" />
<path d="M 204.81 532.48 C 209.36 546.21 215.30 559.57 222.08 572.34 C 199.05 584.61 176.05 596.95 153.09 609.33 C 144.12 592.76 136.58 575.45 130.59 557.58 C 155.29 549.15 180.07 540.80 204.81 532.48 Z" fill="#f62e33" />
<path d="M 694.57 534.24 C 719.31 542.59 743.93 551.32 768.68 559.66 C 762.52 577.55 754.87 594.85 745.76 611.44 C 722.94 598.81 699.91 586.52 677.09 573.89 C 683.97 561.19 689.93 547.92 694.57 534.24 Z" fill="#f62e33" />
<path d="M 222.08 572.34 C 228.71 584.78 236.44 596.58 245.03 607.74 C 224.34 623.62 203.58 639.46 183.03 655.53 C 171.80 640.99 161.75 625.55 153.09 609.33 C 176.05 596.95 199.05 584.61 222.08 572.34 Z" fill="#462f1b" />
<path d="M 677.09 573.89 C 699.91 586.52 722.94 598.81 745.76 611.44 C 737.01 627.53 726.91 642.84 715.68 657.30 C 695.05 641.30 674.51 625.12 653.89 609.13 C 662.60 598.04 670.33 586.26 677.09 573.89 Z" fill="#462f1b" />
<path d="M 557.02 581.59 C 565.06 582.50 573.08 584.43 581.02 585.96 C 590.70 587.18 600.54 588.99 609.70 592.41 C 610.78 592.73 611.45 594.03 612.17 594.83 C 611.50 595.44 610.83 596.06 610.16 596.68 C 599.11 595.42 588.02 595.00 576.98 593.56 C 570.24 592.97 563.67 590.72 556.99 589.78 C 552.27 588.97 549.30 592.28 546.00 595.03 C 539.40 601.13 532.29 606.61 525.62 612.63 C 521.28 616.52 516.33 619.98 512.53 624.28 C 513.47 619.79 516.60 615.98 519.04 612.03 C 526.55 601.66 535.77 592.57 546.40 585.41 C 549.73 583.37 552.90 581.11 557.02 581.59 Z" fill="#000001" />
<path d="M 245.03 607.74 C 253.87 619.21 263.70 629.99 274.31 639.85 C 270.17 643.77 266.45 648.35 262.54 652.52 C 248.57 667.26 234.98 682.37 221.01 697.10 C 207.13 684.39 194.52 670.43 183.03 655.53 C 203.58 639.46 224.34 623.62 245.03 607.74 Z" fill="#f62e33" />
<path d="M 653.89 609.13 C 674.51 625.12 695.05 641.30 715.68 657.30 C 703.95 672.21 691.18 686.00 677.18 698.79 C 659.65 679.47 642.05 660.19 624.38 641.00 C 635.17 631.34 644.91 620.47 653.89 609.13 Z" fill="#f62e33" />
<path d="M 274.31 639.85 C 284.66 649.37 295.71 658.08 307.44 665.83 C 292.89 687.46 278.62 709.42 264.18 731.13 C 248.91 720.93 234.41 709.67 221.01 697.10 C 234.98 682.37 248.57 667.26 262.54 652.52 C 266.45 648.35 270.17 643.77 274.31 639.85 Z" fill="#462f1b" />
<path d="M 624.38 641.00 C 642.05 660.19 659.65 679.47 677.18 698.79 C 663.68 711.16 649.20 722.39 633.85 732.37 C 619.61 710.52 605.35 688.69 591.17 666.80 C 602.89 659.06 614.05 650.51 624.38 641.00 Z" fill="#462f1b" />
<path d="M 307.44 665.83 C 319.54 673.80 332.20 680.74 345.44 686.63 C 334.89 710.50 324.47 734.44 313.74 758.23 C 296.50 750.58 279.92 741.51 264.18 731.13 C 278.62 709.42 292.89 687.46 307.44 665.83 Z" fill="#f62e33" />
<path d="M 591.17 666.80 C 605.35 688.69 619.61 710.52 633.85 732.37 C 618.04 742.72 601.33 751.64 584.02 759.22 C 573.81 735.20 563.27 711.30 552.91 687.34 C 566.25 681.61 578.93 674.58 591.17 666.80 Z" fill="#f62e33" />
<path d="M 345.44 686.63 C 358.31 692.29 371.65 696.96 385.27 700.46 C 378.82 725.78 372.08 751.03 365.70 776.36 C 347.93 771.69 330.53 765.69 313.74 758.23 C 324.47 734.44 334.89 710.50 345.44 686.63 Z" fill="#462f1b" />
<path d="M 552.91 687.34 C 563.27 711.30 573.81 735.20 584.02 759.22 C 567.14 766.53 549.72 772.48 531.86 776.90 C 525.86 751.51 519.11 726.28 513.04 700.91 C 526.67 697.49 540.02 692.91 552.91 687.34 Z" fill="#462f1b" />
<path d="M 385.27 700.46 C 399.30 704.10 413.68 706.46 428.11 707.70 C 425.70 733.70 423.59 759.74 421.38 785.76 C 402.60 784.14 383.96 781.02 365.70 776.36 C 372.08 751.03 378.82 725.78 385.27 700.46 Z" fill="#f62e33" />
<path d="M 513.04 700.91 C 519.11 726.28 525.86 751.51 531.86 776.90 C 513.63 781.47 495.03 784.50 476.29 785.89 C 474.24 759.86 472.26 733.87 470.18 707.83 C 484.61 706.73 499.00 704.39 513.04 700.91 Z" fill="#f62e33" />
<path d="M 428.11 707.70 C 442.10 708.86 456.20 708.94 470.18 707.83 C 472.26 733.87 474.24 759.86 476.29 785.89 C 458.11 787.25 439.56 787.25 421.38 785.76 C 423.59 759.74 425.70 733.70 428.11 707.70 Z" fill="#462f1b" />
</svg>